<svg width="24" height="24" viewBox="0 0 24 24" fill="none" xmlns="http://www.w3.org/2000/svg">
<path d="M23.996 8.92322C23.9839 8.814 23.9474 8.70984 23.8856 8.6153C23.7504 8.4083 23.825 8.53777 18.7037 4.79039V0.703125C18.7037 0.314812 18.3889 0 18.0005 0H6.00055C5.61223 0 5.29742 0.314812 5.29742 0.703125V4.79081C0.0629379 8.6197 0.248141 8.41758 0.120266 8.6078C0.058016 8.70019 0.0192973 8.80762 0.00617229 8.91272C-0.00259334 8.98228 0.000547288 8.08669 0.000547288 21.8906C0.000547288 23.0537 0.946813 24 2.10992 24H21.8912C23.0543 24 24.0005 23.0537 24.0005 21.8906C24.0005 8.04113 24.003 8.98753 23.996 8.92322ZM22.0446 8.95884L18.7036 11.066V6.53114C19.4564 7.07916 20.4098 7.77098 22.0446 8.95884ZM17.2974 1.40625V11.9529L12.0005 15.2937L6.70367 11.9529V1.40625H17.2974ZM5.29742 6.53133V11.066L1.95631 8.95875C3.48444 7.84833 4.58506 7.04972 5.29742 6.53133ZM22.5943 21.8906C22.5943 22.2783 22.2789 22.5938 21.8912 22.5938H2.10992C1.72222 22.5938 1.4068 22.2783 1.4068 21.8906V10.2748L11.6255 16.7197C11.8546 16.8643 12.1465 16.8643 12.3756 16.7197L22.5943 10.2748V21.8906Z" fill="#E5E5E5"/>
<path d="M9.00055 5.20312H15.0005C15.3889 5.20312 15.7037 4.88831 15.7037 4.5C15.7037 4.11169 15.3889 3.79688 15.0005 3.79688H9.00055C8.61224 3.79688 8.29742 4.11169 8.29742 4.5C8.29742 4.88831 8.61219 5.20312 9.00055 5.20312Z" fill="#E5E5E5"/>
<path d="M9.00055 8.20312H15.0005C15.3889 8.20312 15.7037 7.88831 15.7037 7.5C15.7037 7.11169 15.3889 6.79688 15.0005 6.79688H9.00055C8.61224 6.79688 8.29742 7.11169 8.29742 7.5C8.29742 7.88831 8.61219 8.20312 9.00055 8.20312Z" fill="#E5E5E5"/>
<path d="M9.00055 11.2031H15.0005C15.3889 11.2031 15.7037 10.8883 15.7037 10.5C15.7037 10.1117 15.3889 9.79688 15.0005 9.79688H9.00055C8.61224 9.79688 8.29742 10.1117 8.29742 10.5C8.29742 10.8883 8.61219 11.2031 9.00055 11.2031Z" fill="#E5E5E5"/>
<path d="M8.25055 19.5469H3.75055C3.36224 19.5469 3.04742 19.8617 3.04742 20.25C3.04742 20.6383 3.36224 20.9531 3.75055 20.9531H8.25055C8.63886 20.9531 8.95367 20.6383 8.95367 20.25C8.95367 19.8617 8.63886 19.5469 8.25055 19.5469Z" fill="#E5E5E5"/>
<path d="M8.25055 16.5469H3.75055C3.36224 16.5469 3.04742 16.8617 3.04742 17.25C3.04742 17.6383 3.36224 17.9531 3.75055 17.9531H8.25055C8.63886 17.9531 8.95367 17.6383 8.95367 17.25C8.95367 16.8617 8.63886 16.5469 8.25055 16.5469Z" fill="#E5E5E5"/>
<path d="M15.7505 20.9531H20.2505C20.6389 20.9531 20.9537 20.6383 20.9537 20.25V17.25C20.9537 16.8617 20.6389 16.5469 20.2505 16.5469H15.7505C15.3622 16.5469 15.0474 16.8617 15.0474 17.25V20.25C15.0474 20.6383 15.3622 20.9531 15.7505 20.9531ZM16.4537 17.9531H19.5474V19.5469H16.4537V17.9531Z" fill="#E5E5E5"/>
</svg>
