<svg width="37" height="24" viewBox="0 0 37 24" fill="none" xmlns="http://www.w3.org/2000/svg">
<path d="M36.5216 16.5979C36.4306 14.5043 36.0665 12.1831 35.5203 9.9984C34.9742 7.90477 34.2915 5.94768 33.4722 4.44573C30.2863 -1.15246 26.8272 -0.287701 22.6855 0.804629C21.3656 1.12322 19.9547 1.48733 18.4982 1.62388H18.0431C16.5866 1.48733 15.1757 1.12322 13.8558 0.804629C9.71406 -0.242187 6.25502 -1.15246 3.06906 4.49124C2.24981 5.99319 1.52159 7.95028 1.02094 10.0439C0.474778 12.2286 0.110668 14.5498 0.0196407 16.6434C-0.0713868 18.9646 0.156182 20.6486 0.656833 21.832C1.15748 22.9243 1.8857 23.607 2.84149 23.8801C3.70625 24.1077 4.70755 24.0166 5.75437 23.5615C7.52941 22.8333 9.57752 21.2858 11.5801 19.4197C12.9911 18.0543 15.6308 17.3716 18.2706 17.3716C20.9104 17.3716 23.5502 18.0543 24.9612 19.4197C26.9638 21.2858 29.0119 22.8333 30.7869 23.5615C31.8337 23.9711 32.835 24.1077 33.6998 23.8801C34.6101 23.607 35.3838 22.9698 35.8845 21.7865C36.3851 20.6486 36.6127 18.9646 36.5216 16.5979ZM34.337 21.1493C34.0639 21.7865 33.6998 22.1506 33.2447 22.2871C32.744 22.4236 32.1068 22.3326 31.3786 22.0595C29.7856 21.4223 27.9196 20.0114 26.099 18.2819C24.3695 16.5524 21.3201 15.6876 18.2706 15.6876C15.2212 15.6876 12.1718 16.5524 10.3968 18.1909C8.53071 19.9204 6.66464 21.3768 5.11718 21.9685C4.38896 22.2416 3.75177 22.3781 3.25112 22.1961C2.79598 22.0595 2.43187 21.6954 2.15879 21.0582C1.79468 20.1935 1.61262 18.7826 1.70365 16.6889C1.79468 14.7318 2.11327 12.5017 2.65944 10.408C3.16009 8.45093 3.79728 6.63039 4.57101 5.26497C7.07427 0.759115 9.98715 1.48733 13.4462 2.39761C14.8571 2.76172 16.3136 3.12583 17.9065 3.26237C17.952 3.26237 17.952 3.26237 17.9976 3.26237H18.4982C18.5437 3.26237 18.5437 3.26237 18.5892 3.26237C20.2277 3.12583 21.6842 2.76172 23.0951 2.39761C26.5541 1.53285 29.467 0.759115 31.9703 5.26497C32.744 6.63039 33.3812 8.40542 33.8819 10.408C34.3825 12.5017 34.7466 14.6863 34.8376 16.6889C34.9287 18.7826 34.7466 20.1935 34.337 21.1493Z" fill="#E5E5E5"/>
<path d="M14.0834 7.7227C13.6282 7.31308 13.0821 6.99448 12.4449 6.94897C12.3994 6.35729 12.1263 5.76561 11.7167 5.35599L11.6712 5.31048C11.1705 4.80983 10.5333 4.53674 9.80509 4.53674C9.07687 4.53674 8.39416 4.85534 7.93902 5.31048C7.5294 5.7201 7.2108 6.31178 7.16529 6.94897C6.5281 6.99448 5.98193 7.26757 5.5268 7.67719L5.48128 7.7227C4.98063 8.22336 4.70755 8.86055 4.70755 9.58877C4.70755 10.317 5.02615 10.9997 5.48128 11.4548C5.93642 11.91 6.48259 12.183 7.16529 12.2286C7.2108 12.8658 7.48389 13.4574 7.93902 13.8671C8.43968 14.3677 9.07687 14.6408 9.80509 14.6408C10.5333 14.6408 11.216 14.3222 11.6712 13.8671C12.0808 13.4119 12.3994 12.8658 12.4449 12.2286C13.0821 12.183 13.6738 11.91 14.0834 11.4548C14.584 10.9542 14.8571 10.317 14.8571 9.58877C14.8571 8.86055 14.5385 8.17784 14.0834 7.7227ZM12.9455 10.2715C12.7635 10.4535 12.5359 10.5446 12.2628 10.5446H11.6256C11.1705 10.5446 10.7609 10.9087 10.7609 11.4093V12.001C10.7609 12.2741 10.6698 12.5016 10.4878 12.6837C10.3057 12.8658 10.0782 12.9568 9.80509 12.9568C9.532 12.9568 9.30444 12.8658 9.12238 12.6837C8.94033 12.5016 8.8493 12.2741 8.8493 12.001V11.3638C8.8493 10.9087 8.48519 10.499 7.98454 10.499H7.34735C7.07426 10.499 6.8467 10.408 6.66464 10.226C6.5281 10.0894 6.39156 9.86185 6.39156 9.58877C6.39156 9.31568 6.48259 9.08812 6.66464 8.90606C6.66464 8.90606 6.66464 8.90606 6.71015 8.86055C6.89221 8.72401 7.11978 8.63298 7.34735 8.63298H7.98454C8.43968 8.63298 8.8493 8.26887 8.8493 7.76822V7.13103C8.8493 6.85794 8.94033 6.63037 9.12238 6.44832C9.30444 6.26626 9.532 6.17524 9.80509 6.17524C10.0782 6.17524 10.3057 6.26626 10.4878 6.44832C10.4878 6.44832 10.4878 6.44832 10.5333 6.49383C10.6698 6.67589 10.7609 6.90346 10.7609 7.13103V7.76822C10.7609 8.22335 11.125 8.63298 11.6256 8.63298H12.2628C12.5359 8.63298 12.7635 8.72401 12.9455 8.90606C13.1276 9.08812 13.2186 9.31568 13.2186 9.58877C13.2186 9.86185 13.1276 10.0894 12.9455 10.2715Z" fill="#E5E5E5"/>
<path d="M26.19 7.9503C27.0698 7.9503 27.783 7.2371 27.783 6.35732C27.783 5.47754 27.0698 4.76434 26.19 4.76434C25.3102 4.76434 24.597 5.47754 24.597 6.35732C24.597 7.2371 25.3102 7.9503 26.19 7.9503Z" fill="#E5E5E5"/>
<path d="M26.19 14.4133C27.0698 14.4133 27.783 13.7001 27.783 12.8203C27.783 11.9405 27.0698 11.2273 26.19 11.2273C25.3102 11.2273 24.597 11.9405 24.597 12.8203C24.597 13.7001 25.3102 14.4133 26.19 14.4133Z" fill="#E5E5E5"/>
<path d="M22.9586 11.1817C23.8383 11.1817 24.5515 10.4685 24.5515 9.58877C24.5515 8.70899 23.8383 7.99579 22.9586 7.99579C22.0788 7.99579 21.3656 8.70899 21.3656 9.58877C21.3656 10.4685 22.0788 11.1817 22.9586 11.1817Z" fill="#E5E5E5"/>
<path d="M29.4215 11.1817C30.3013 11.1817 31.0145 10.4685 31.0145 9.58877C31.0145 8.70899 30.3013 7.99579 29.4215 7.99579C28.5417 7.99579 27.8285 8.70899 27.8285 9.58877C27.8285 10.4685 28.5417 11.1817 29.4215 11.1817Z" fill="#E5E5E5"/>
</svg>
