<svg width="18" height="18" viewBox="0 0 18 18" fill="none" xmlns="http://www.w3.org/2000/svg">
<path d="M8.5 8V13H9.5V8H8.5Z" fill="#F8E100"/>
<path d="M9 4C8.44771 4 8 4.44772 8 5C8 5.55228 8.44771 6 9 6C9.55228 6 10 5.55228 10 5C10 4.44772 9.55228 4 9 4Z" fill="#F8E100"/>
<path fill-rule="evenodd" clip-rule="evenodd" d="M18 9C18 13.9706 13.9706 18 9 18C4.02944 18 0 13.9706 0 9C0 4.02944 4.02944 0 9 0C13.9706 0 18 4.02944 18 9ZM17 9C17 13.4183 13.4183 17 9 17C4.58172 17 1 13.4183 1 9C1 4.58172 4.58172 1 9 1C13.4183 1 17 4.58172 17 9Z" fill="#F8E100"/>
</svg>
