<svg width="24" height="24" viewBox="0 0 24 24" fill="none" xmlns="http://www.w3.org/2000/svg">
<path d="M23.2971 1.73219H20.2172C20.2284 1.39106 20.2346 1.04792 20.2346 0.70313C20.2346 0.314761 19.9196 0 19.5315 0H4.46872C4.08054 0 3.76559 0.314761 3.76559 0.70313C3.76559 1.04792 3.77182 1.39106 3.78299 1.73219H0.70313C0.314761 1.73219 0 2.04695 0 2.43532C0 5.58586 0.823432 8.55823 2.3185 10.8051C3.79635 13.0264 5.76494 14.3005 7.89154 14.4244C8.37366 14.949 8.88325 15.3768 9.41407 15.7031V18.8281H8.2345C6.80846 18.8281 5.64848 19.9883 5.64848 21.4142V22.5937H5.59849C5.21012 22.5937 4.89536 22.9087 4.89536 23.2969C4.89536 23.6852 5.21012 24 5.59849 24H18.4017C18.7901 24 19.1048 23.6852 19.1048 23.2969C19.1048 22.9087 18.7901 22.5937 18.4017 22.5937H18.3517V21.4142C18.3517 19.9883 17.1917 18.8281 15.7657 18.8281H14.5861V15.7031C15.1169 15.3769 15.6267 14.949 16.1088 14.4244C18.2352 14.3005 20.2038 13.0264 21.6819 10.8051C23.1769 8.55823 24.0002 5.58586 24.0002 2.43532C24.0002 2.04695 23.6854 1.73219 23.2971 1.73219ZM3.48928 10.0262C2.25606 8.17297 1.53151 5.74901 1.42109 3.13845H3.86154C4.11514 6.34758 4.86845 9.31391 6.04582 11.6685C6.23332 12.0435 6.42943 12.3978 6.63286 12.7314C5.46336 12.2898 4.38101 11.3665 3.48928 10.0262ZM16.9454 21.4142V22.5939H7.05474V21.4142C7.05474 20.7638 7.58392 20.2344 8.2345 20.2344H15.7657C16.4163 20.2344 16.9454 20.7638 16.9454 21.4142ZM13.1798 18.8281H10.8203V16.3141C11.2069 16.4159 11.6007 16.4688 12.0001 16.4688C12.3994 16.4688 12.7933 16.4159 13.1798 16.3141V18.8281ZM13.6153 14.6412C13.5836 14.6542 13.5532 14.67 13.5241 14.6874C13.0271 14.9346 12.5165 15.0626 12.0001 15.0626C11.4839 15.0626 10.9734 14.9346 10.4766 14.6877C10.4472 14.67 10.4166 14.6542 10.3845 14.6409C9.83321 14.3494 9.29981 13.9092 8.79535 13.3307C8.7688 13.2928 8.73896 13.2579 8.70582 13.226C8.20502 12.6314 7.73388 11.9001 7.30358 11.0395C6.0114 8.45533 5.26505 5.05741 5.18009 1.40626H18.8201C18.7349 5.05741 17.9886 8.45551 16.6966 11.0395C16.2663 11.9001 15.7952 12.6314 15.2945 13.226C15.2612 13.2579 15.231 13.293 15.2046 13.3309C14.7002 13.9095 14.1666 14.3495 13.6153 14.6412ZM20.5109 10.0262C19.6192 11.3665 18.5368 12.2898 17.3673 12.7314C17.5708 12.3978 17.7669 12.0435 17.9544 11.6685C19.1317 9.31391 19.8849 6.34758 20.1386 3.13845H22.5791C22.4687 5.74901 21.7441 8.17297 20.5109 10.0262Z" fill="#E5E5E5"/>
</svg>
